<svg xmlns="http://www.w3.org/2000/svg" viewBox="0 0 126.58 126.58"><defs><style>.cls-1{fill:#fff;}</style></defs><title>Asset 9</title><g id="Layer_2" data-name="Layer 2"><g id="Layer_1-2" data-name="Layer 1"><rect width="126.58" height="126.58"/><path class="cls-1" d="M22.34,100.17V98.68a10.54,10.54,0,0,0,5.07-1.75,9.23,9.23,0,0,0,3.21-5,33.73,33.73,0,0,0,1.12-9.85V41.25a14.87,14.87,0,0,0-.41-4.07,2.72,2.72,0,0,0-1.61-1.79,11,11,0,0,0-3.58-.56V33.34q1.88.07,4.89.15t6.38.08q3.36,0,6.52-.08c2.12-.05,3.87-.1,5.26-.15v1.49a11.14,11.14,0,0,0-3.54.56A2.69,2.69,0,0,0,44,37.18a14.48,14.48,0,0,0-.41,4.07v33.9q0,3.54-.26,6.9a30.62,30.62,0,0,1-1,6,16,16,0,0,1-6.45,8.65Q30.92,100.17,22.34,100.17Z"/><path class="cls-1" d="M98.87,33.34q-.3,3.36-.41,6.49c-.08,2.09-.11,3.71-.11,4.85s0,2.2.07,3.17.1,1.8.15,2.5H96.85a31.6,31.6,0,0,0-2.68-9.14A11,11,0,0,0,90,36.48,11.75,11.75,0,0,0,84,35.06H81.56a11,11,0,0,0-3.28.37,2.27,2.27,0,0,0-1.49,1.49,11.65,11.65,0,0,0-.37,3.43V77.8A11.71,11.71,0,0,0,77,82.12,3.21,3.21,0,0,0,79.32,84a23.65,23.65,0,0,0,5.08.52v1.64q-2.31-.08-6-.15t-7.68-.07q-3.21,0-6.27.07L59,86.15V84.66a13.07,13.07,0,0,0,3.58-.6,2.6,2.6,0,0,0,1.61-1.79,14.8,14.8,0,0,0,.41-4v-37a14.87,14.87,0,0,0-.41-4.07,2.72,2.72,0,0,0-1.64-1.79A11.22,11.22,0,0,0,59,34.83V33.34l8.73.15q4.69.07,8.87.08h6.72c2.28,0,4.88,0,7.79,0S96.58,33.44,98.87,33.34ZM87.75,59.15v1.49H74.18V59.15Zm1.87-9.85q-.3,4.26-.26,6.49c0,1.5,0,2.86,0,4.11s0,2.61.07,4.1.17,3.65.37,6.49H88.13a21.53,21.53,0,0,0-1.42-4.85A8.78,8.78,0,0,0,83.88,62,8,8,0,0,0,79,60.64V59.15a6.79,6.79,0,0,0,4.77-1.64,10.77,10.77,0,0,0,2.72-3.92A26.48,26.48,0,0,0,87.9,49.3Z"/></g></g></svg>